<mxfile host="app.diagrams.net" agent="Mozilla/5.0 (Windows NT 10.0; Win64; x64) AppleWebKit/537.36 (KHTML, like Gecko) Chrome/129.0.0.0 Safari/537.36" version="24.7.17">
  <diagram id="C5RBs43oDa-KdzZeNtuy" name="Page-1">
    <mxGraphModel dx="2261" dy="1907" grid="1" gridSize="10" guides="1" tooltips="1" connect="1" arrows="1" fold="1" page="1" pageScale="1" pageWidth="827" pageHeight="1169" math="0" shadow="0">
      <root>
        <mxCell id="WIyWlLk6GJQsqaUBKTNV-0" />
        <mxCell id="WIyWlLk6GJQsqaUBKTNV-1" parent="WIyWlLk6GJQsqaUBKTNV-0" />
        <mxCell id="s4gW2ee3z8RKwVpYuk9V-25" style="edgeStyle=orthogonalEdgeStyle;rounded=0;orthogonalLoop=1;jettySize=auto;html=1;entryX=0.5;entryY=0;entryDx=0;entryDy=0;" parent="WIyWlLk6GJQsqaUBKTNV-1" source="s4gW2ee3z8RKwVpYuk9V-3" target="s4gW2ee3z8RKwVpYuk9V-13" edge="1">
          <mxGeometry relative="1" as="geometry" />
        </mxCell>
        <mxCell id="s4gW2ee3z8RKwVpYuk9V-26" style="edgeStyle=orthogonalEdgeStyle;rounded=0;orthogonalLoop=1;jettySize=auto;html=1;entryX=0.5;entryY=0;entryDx=0;entryDy=0;exitX=0.5;exitY=1;exitDx=0;exitDy=0;" parent="WIyWlLk6GJQsqaUBKTNV-1" source="s4gW2ee3z8RKwVpYuk9V-3" target="s4gW2ee3z8RKwVpYuk9V-11" edge="1">
          <mxGeometry relative="1" as="geometry" />
        </mxCell>
        <mxCell id="s4gW2ee3z8RKwVpYuk9V-27" style="edgeStyle=orthogonalEdgeStyle;rounded=0;orthogonalLoop=1;jettySize=auto;html=1;entryX=0.5;entryY=0;entryDx=0;entryDy=0;exitX=0.5;exitY=1;exitDx=0;exitDy=0;" parent="WIyWlLk6GJQsqaUBKTNV-1" source="s4gW2ee3z8RKwVpYuk9V-3" target="s4gW2ee3z8RKwVpYuk9V-12" edge="1">
          <mxGeometry relative="1" as="geometry" />
        </mxCell>
        <mxCell id="s4gW2ee3z8RKwVpYuk9V-3" value="Vehicle" style="swimlane;whiteSpace=wrap;html=1;" parent="WIyWlLk6GJQsqaUBKTNV-1" vertex="1">
          <mxGeometry x="120" y="240" width="205" height="310" as="geometry" />
        </mxCell>
        <mxCell id="s4gW2ee3z8RKwVpYuk9V-18" value="&lt;font style=&quot;font-size: 15px;&quot;&gt;- seating : int&lt;/font&gt;&lt;div style=&quot;font-size: 15px;&quot;&gt;&lt;font style=&quot;font-size: 15px;&quot;&gt;- gasMileage : int&lt;/font&gt;&lt;/div&gt;&lt;div style=&quot;font-size: 15px;&quot;&gt;&lt;font style=&quot;font-size: 15px;&quot;&gt;- make : String&lt;/font&gt;&lt;/div&gt;&lt;div style=&quot;font-size: 15px;&quot;&gt;&lt;font style=&quot;font-size: 15px;&quot;&gt;- model : String&lt;/font&gt;&lt;/div&gt;&lt;div style=&quot;font-size: 15px;&quot;&gt;&lt;font style=&quot;font-size: 15px;&quot;&gt;- year : int&lt;/font&gt;&lt;/div&gt;&lt;div style=&quot;font-size: 15px;&quot;&gt;&lt;font style=&quot;font-size: 15px;&quot;&gt;- topSpeed : int&lt;/font&gt;&lt;/div&gt;&lt;div style=&quot;font-size: 15px;&quot;&gt;&lt;font style=&quot;font-size: 15px;&quot;&gt;- rentalPrice : double&lt;/font&gt;&lt;/div&gt;&lt;div style=&quot;font-size: 15px;&quot;&gt;&lt;font style=&quot;font-size: 15px;&quot;&gt;&lt;br&gt;&lt;/font&gt;&lt;/div&gt;&lt;div style=&quot;font-size: 15px;&quot;&gt;&lt;font style=&quot;font-size: 15px;&quot;&gt;&lt;div&gt;+ getSeating() : int&lt;/div&gt;&lt;div&gt;+ getGasMileage() : int&lt;/div&gt;&lt;div&gt;+ getMake() : String&lt;/div&gt;&lt;div&gt;+ getModel() : String&lt;/div&gt;&lt;div&gt;+ getYear() :&amp;nbsp;int&lt;/div&gt;&lt;div&gt;+ getTopSpeed() : int&lt;/div&gt;&lt;div&gt;+ getRentalPrice() : double&lt;/div&gt;&lt;/font&gt;&lt;/div&gt;" style="text;html=1;align=left;verticalAlign=middle;resizable=0;points=[];autosize=1;strokeColor=none;fillColor=none;" parent="s4gW2ee3z8RKwVpYuk9V-3" vertex="1">
          <mxGeometry x="2.5" y="20" width="200" height="280" as="geometry" />
        </mxCell>
        <mxCell id="s4gW2ee3z8RKwVpYuk9V-8" value="Person" style="swimlane;whiteSpace=wrap;html=1;" parent="WIyWlLk6GJQsqaUBKTNV-1" vertex="1">
          <mxGeometry x="750" y="240" width="214" height="360" as="geometry" />
        </mxCell>
        <mxCell id="s4gW2ee3z8RKwVpYuk9V-20" value="&lt;span style=&quot;font-size: 15px;&quot;&gt;- firstName : String&lt;/span&gt;&lt;div&gt;&lt;span style=&quot;font-size: 15px;&quot;&gt;- lastName : String&lt;/span&gt;&lt;/div&gt;&lt;div&gt;&lt;span style=&quot;font-size: 15px;&quot;&gt;- birthYear : int&lt;/span&gt;&lt;/div&gt;&lt;div&gt;&lt;span style=&quot;font-size: 15px;&quot;&gt;- birthMonth : int&lt;/span&gt;&lt;/div&gt;&lt;div&gt;&lt;span style=&quot;font-size: 15px; background-color: initial;&quot;&gt;- driversLicenseNum : String&lt;/span&gt;&lt;/div&gt;&lt;div&gt;&lt;span style=&quot;font-size: 15px;&quot;&gt;&lt;br&gt;&lt;/span&gt;&lt;/div&gt;&lt;div&gt;&lt;span style=&quot;font-size: 15px;&quot;&gt;+ getFirstName()&lt;/span&gt;&lt;/div&gt;&lt;div&gt;&lt;span style=&quot;font-size: 15px;&quot;&gt;+ setFirstName()&lt;/span&gt;&lt;/div&gt;&lt;div&gt;&lt;span style=&quot;font-size: 15px;&quot;&gt;+ getLastName()&lt;/span&gt;&lt;/div&gt;&lt;div&gt;&lt;span style=&quot;font-size: 15px;&quot;&gt;+ setLastName()&lt;/span&gt;&lt;/div&gt;&lt;div&gt;&lt;span style=&quot;font-size: 15px;&quot;&gt;+ getBirthYear()&lt;/span&gt;&lt;/div&gt;&lt;div&gt;&lt;span style=&quot;font-size: 15px;&quot;&gt;+ setBirthYear()&lt;/span&gt;&lt;/div&gt;&lt;div&gt;&lt;span style=&quot;font-size: 15px;&quot;&gt;+ getBirthMonth()&lt;/span&gt;&lt;/div&gt;&lt;div&gt;&lt;span style=&quot;font-size: 15px;&quot;&gt;+ setBirthMonth()&lt;/span&gt;&lt;/div&gt;&lt;div&gt;&lt;span style=&quot;font-size: 15px;&quot;&gt;+ getDriversLicenseNum()&lt;/span&gt;&lt;/div&gt;&lt;div&gt;&lt;span style=&quot;font-size: 15px;&quot;&gt;+ setDriversLicenseNum()&lt;/span&gt;&lt;/div&gt;&lt;div&gt;&lt;span style=&quot;font-size: 15px;&quot;&gt;+ equals()&lt;/span&gt;&lt;/div&gt;&lt;div&gt;&lt;span style=&quot;font-size: 15px;&quot;&gt;+ toString()&lt;/span&gt;&lt;/div&gt;" style="text;html=1;align=left;verticalAlign=middle;resizable=0;points=[];autosize=1;strokeColor=none;fillColor=none;" parent="s4gW2ee3z8RKwVpYuk9V-8" vertex="1">
          <mxGeometry x="4" y="20" width="210" height="340" as="geometry" />
        </mxCell>
        <mxCell id="s4gW2ee3z8RKwVpYuk9V-11" value="EV Sedan" style="swimlane;whiteSpace=wrap;html=1;" parent="WIyWlLk6GJQsqaUBKTNV-1" vertex="1">
          <mxGeometry x="-90" y="610" width="200" height="290" as="geometry" />
        </mxCell>
        <mxCell id="s4gW2ee3z8RKwVpYuk9V-22" value="&lt;div style=&quot;font-size: 15px;&quot;&gt;- evRange : int&lt;/div&gt;&lt;div style=&quot;font-size: 15px;&quot;&gt;- chargeTime : int&lt;/div&gt;&lt;div style=&quot;font-size: 15px;&quot;&gt;&lt;br&gt;&lt;/div&gt;" style="text;html=1;align=left;verticalAlign=middle;resizable=0;points=[];autosize=1;strokeColor=none;fillColor=none;" parent="s4gW2ee3z8RKwVpYuk9V-11" vertex="1">
          <mxGeometry y="80" width="140" height="70" as="geometry" />
        </mxCell>
        <mxCell id="s4gW2ee3z8RKwVpYuk9V-12" value="Truck" style="swimlane;whiteSpace=wrap;html=1;" parent="WIyWlLk6GJQsqaUBKTNV-1" vertex="1">
          <mxGeometry x="350" y="610" width="210" height="290" as="geometry" />
        </mxCell>
        <mxCell id="s4gW2ee3z8RKwVpYuk9V-29" value="&lt;div style=&quot;font-size: 15px;&quot;&gt;- towingCapacity : int&lt;/div&gt;&lt;div style=&quot;font-size: 15px;&quot;&gt;&lt;br&gt;&lt;/div&gt;" style="text;html=1;align=left;verticalAlign=middle;resizable=0;points=[];autosize=1;strokeColor=none;fillColor=none;" parent="s4gW2ee3z8RKwVpYuk9V-12" vertex="1">
          <mxGeometry x="4.5" y="85" width="160" height="50" as="geometry" />
        </mxCell>
        <mxCell id="s4gW2ee3z8RKwVpYuk9V-13" value="SUV" style="swimlane;whiteSpace=wrap;html=1;" parent="WIyWlLk6GJQsqaUBKTNV-1" vertex="1">
          <mxGeometry x="120" y="610" width="210" height="290" as="geometry" />
        </mxCell>
        <mxCell id="s4gW2ee3z8RKwVpYuk9V-30" value="&lt;div style=&quot;font-size: 15px;&quot;&gt;- trunkSpace : int&lt;/div&gt;&lt;div style=&quot;font-size: 15px;&quot;&gt;&lt;br&gt;&lt;/div&gt;" style="text;html=1;align=left;verticalAlign=middle;resizable=0;points=[];autosize=1;strokeColor=none;fillColor=none;" parent="s4gW2ee3z8RKwVpYuk9V-13" vertex="1">
          <mxGeometry x="5" y="85" width="140" height="50" as="geometry" />
        </mxCell>
        <mxCell id="s4gW2ee3z8RKwVpYuk9V-33" style="edgeStyle=orthogonalEdgeStyle;rounded=0;orthogonalLoop=1;jettySize=auto;html=1;entryX=0.5;entryY=0;entryDx=0;entryDy=0;exitX=0.5;exitY=1;exitDx=0;exitDy=0;" parent="WIyWlLk6GJQsqaUBKTNV-1" source="s4gW2ee3z8RKwVpYuk9V-31" target="s4gW2ee3z8RKwVpYuk9V-3" edge="1">
          <mxGeometry relative="1" as="geometry" />
        </mxCell>
        <mxCell id="s4gW2ee3z8RKwVpYuk9V-34" style="edgeStyle=orthogonalEdgeStyle;rounded=0;orthogonalLoop=1;jettySize=auto;html=1;entryX=0.5;entryY=0;entryDx=0;entryDy=0;exitX=0.5;exitY=1;exitDx=0;exitDy=0;" parent="WIyWlLk6GJQsqaUBKTNV-1" source="s4gW2ee3z8RKwVpYuk9V-31" target="s4gW2ee3z8RKwVpYuk9V-8" edge="1">
          <mxGeometry relative="1" as="geometry" />
        </mxCell>
        <mxCell id="s4gW2ee3z8RKwVpYuk9V-31" value="Main" style="swimlane;whiteSpace=wrap;html=1;" parent="WIyWlLk6GJQsqaUBKTNV-1" vertex="1">
          <mxGeometry x="380" y="-70" width="200" height="200" as="geometry" />
        </mxCell>
        <mxCell id="s4gW2ee3z8RKwVpYuk9V-35" value="Custom exception for age: if under 25 do not allow user to rent" style="shape=callout;whiteSpace=wrap;html=1;perimeter=calloutPerimeter;" parent="WIyWlLk6GJQsqaUBKTNV-1" vertex="1">
          <mxGeometry x="1010" y="250" width="120" height="80" as="geometry" />
        </mxCell>
      </root>
    </mxGraphModel>
  </diagram>
</mxfile>
